<?xml version="1.0" encoding="utf-8"?>
<!-- Generator: Adobe Illustrator 26.0.2, SVG Export Plug-In . SVG Version: 6.00 Build 0)  -->
<svg version="1.0" id="Layer_1" xmlns="http://www.w3.org/2000/svg" xmlns:xlink="http://www.w3.org/1999/xlink" x="0px" y="0px"
	 viewBox="0 0 728.5 529.7" style="enable-background:new 0 0 728.5 529.7;" xml:space="preserve">
<style type="text/css">
	.st0{display:none;fill:#ED1C24;}
	.st1{fill:#DCDDDE;}
	.st2{fill:#FFFFFF;}
	.st3{fill:#D9D9D9;}
	.st4{fill:#294B8C;}
	.st5{stroke:#000000;stroke-width:0.5;stroke-miterlimit:10;}
	.st6{font-family:'Roboto-Light';}
	.st7{font-size:33px;}
	.st8{letter-spacing:2;}
</style>
<rect x="-24.4" y="-60.7" class="st0" width="820.3" height="523.5"/>
<g>
	<path class="st1" d="M281.3,362.4c-2.2,1.9-4.4,3.8-6.7,5.6c-0.8,0.7-1.7,1.4-2.7,1.8c-1.2,0.4-2.7,1-3.8,0.6
		c-1.6-0.6-1.5-2.4-1.3-3.9c0.4-3.5,1.5-6.7,3.1-9.7h-7.2c-3.3,1.4-6.7,2.7-10.2,3.5c-4.6,1-8.4-0.6-11.7-3.5h-22.4
		c3.3,5.4,7.4,10.2,12.4,14.2c5,4,10.5,3.3,15.7,0.3c4.4-2.5,8.7-5.4,13-8.1c0.4-0.3,0.9-0.6,1.3-0.8c0.1,0.1,0.2,0.2,0.2,0.3
		c-2.1,1.8-4.2,3.6-6.3,5.5c-3.8,3.5-7.8,6.8-11.2,10.7c-3.6,4.2-2.9,7.9,1.4,11.3c2.2,1.7,4.6,3.1,7.1,4.3
		c7.7,3.6,14.6,1.4,20.8-3.8c5.6-4.7,9.5-10.8,13.6-16.8c3.9-5.7,7.7-11.4,11.6-17.1h-10.5C285.5,358.6,283.4,360.5,281.3,362.4z"/>
	<path class="st1" d="M318.9,359.9c-2,5.6-3.7,11.3-5.8,16.8c-1.2,3.1-2.6,6.1-4.4,8.9c-1.6,2.6-4.1,4.2-7.2,4.6
		c-3.7,0.5-6.2-2.6-5.9-5.5c0.5-4.3,1.3-8.6,2-13c0.1-0.6,0.2-1.3,0.3-1.9c-0.2-0.1-0.4-0.1-0.5-0.2c-2.9,7.4-5.8,14.7-8.6,22.1
		c-0.3,0.7-0.3,1.4-0.4,2.2c-0.8,5.6,1.5,8.9,7.1,9.6c6.1,0.7,12.1-0.2,17.9-2c2.9-0.9,4.2-3.3,4.2-6.3c0-2.4-0.3-4.8-0.4-7.3
		c0-0.5-0.1-1.1-0.1-2.1c1.2,2.3,2,4.2,3.1,6c1.7,2.7,4.4,3.3,7.2,1.7c3.3-1.9,4.3-4.3,2.7-7.3c-4.9-9.3-6.5-19.2-6.4-29.5h-3.5
		C319.7,357.7,319.3,358.8,318.9,359.9z"/>
	<path class="st1" d="M344.9,357.5c0.4,2.5-0.3,4.8-2.1,6.8c-2.1,2.3-5.3,1.7-6.6-0.3c-1.6-2.4-3-4.8-4.5-7.2h-1.4
		c1.7,5.1,3.5,10.2,5.2,15.3c0.2,0.6,0.6,1.1,0.9,1.6c2.5,4,5.7,4.8,9.6,2.3c4.3-2.8,7.5-6.6,10.2-10.8c1.4-2.1,0.9-4.3-0.7-6.2
		c-0.6-0.8-1.3-1.5-2-2.2h-8.8C344.8,356.9,344.8,357.2,344.9,357.5z"/>
</g>
<g>
	<path d="M490.4,208.2c13.8-0.3,27.1-2.7,39.5-8.9c7.4-3.7,13.7-8.7,18.3-15.8c3.4-5.3,5.2-11.2,5.7-17.5c0-0.6,0.1-1.2,0.1-1.8
		c0,0,0.1-0.1,0.1-0.1c3.7,5.8,5.1,16.3-3.4,27.8c3-0.9,7.6-7.1,10.2-13.4c-0.3,1.2-0.5,2.5-0.8,3.6c-1.7,5.3-4.7,9.7-8.7,13.4
		c-12.9,12-27.3,18.9-44.8,19.8c0,0-13.8,0.4-28.5-1.1c-4.5-0.5-4.5-6.7-4.5-6.7L490.4,208.2z"/>
	<path d="M544.9,239.1c-2.9,2.4-6.2,4.1-9.8,5c-6,1.4-11.8,0.9-17.7-0.8c-2.5-0.7-5-1.4-7.5-2.1c0-0.2-0.1-0.4-0.1-0.6
		c1-0.2,2-0.3,3-0.6c7.3-2.3,14.6-4.7,21.5-8.1c7-3.5,12.6-8.5,17.2-14.8c2.3-3.2,4.4-6.5,6.8-9.7c-0.6,2.4-1.2,4.9-1.9,7.3
		c-1.4,4.8-3.4,9.4-6.4,13.4c-5.2,7-12.2,10.7-20.9,11.4c-0.3,0-0.7,0.1-1,0.2C533.7,240.9,539.3,241.3,544.9,239.1z"/>
	<path d="M512.2,221.2c4.6-1.6,9.3-3.2,13.8-4.9c7.6-2.8,14.7-6.4,20.5-12.2c3.8-3.8,7-7.9,9.9-12.3c0.4-0.5,0.7-1,1.3-1.8
		c-0.1,3.5-0.6,6.6-1.6,9.6c-2.8,8.5-8.8,13.7-16.8,16.9c-6.7,2.7-13.8,3.8-21,4.5c-2,0.2-4.1,0.3-6.1,0.4
		C512.2,221.3,512.2,221.3,512.2,221.2z"/>
	<path d="M347.4,197.8c3.4,1.3,6.8,1.8,10.3,0.8c7.6-2.3,11.3-10.8,8.2-18.7c-1.9-4.7-5.4-7.9-9.4-10.7c-7.1-4.9-15.2-8-23-11.7
		c-12.2-5.7-24.2-11.8-35.5-19.3c-6.4-4.3-12.5-9.1-18.2-14.3c0.7,0.9,1.5,1.7,2.2,2.6c0.8,0.9,1.6,1.8,2.4,2.6
		c9.3,10,19.7,18.6,31.1,26c7.2,4.6,14.7,8.9,22.1,13.3c5.1,3,10.2,6.1,14,10.8c2.3,2.9,3.7,6.2,3.7,10c0,4.3-2.4,7.3-6.6,8.3
		C348.4,197.6,347.9,197.7,347.4,197.8z"/>
	<path d="M521.8,248c-4.2,3-8.7,4.7-13.9,2.9c-4.5-1.6-7.5-5.2-10.1-9.1C505.1,246.4,513,248.8,521.8,248z"/>
	<path d="M299.2,254.6c5,7.2,12,9.8,20.6,9c0,0.1,0,0.3,0,0.4c-2.3,0.6-4.6,1.2-7.3,1.9c4.2,1.5,8.3,2.2,12.5,1.6
		c7.6-1,13.3-5.3,18.1-11c1.9-2.2,3.5-4.6,5.3-7c-3.7,1.8-7,3.8-10.6,5.3c-7.4,3.2-15.1,4.9-23.2,4.6
		C309.1,259.2,303.9,257.7,299.2,254.6z"/>
	<path d="M332.4,184c0,0,12.1-2.5,20.2,29.8c0,0,2.9,11.9,15.2,16.8c0,0,19.2,15.4-8.3,29.3c0,0,13.8-10.9,3.5-20.9
		c0,0-19.2-14.7-16.8-28.2C346.2,210.9,347.7,193.7,332.4,184z"/>
	<path d="M245.6,33c0,0-35.7,63.1,87.8,139.1C333.3,172.1,191.9,109.5,245.6,33z"/>
	<path d="M300.3,163.2c0,0-76.4-16.6-85.1-96.3C215.2,67,215.7,161.1,300.3,163.2z"/>
	<path d="M309.3,181.4c0,0-83.4-7.4-103.8-82.1C205.5,99.3,209.6,190.3,309.3,181.4z"/>
	<path d="M315.9,195.9c0,0-9.3-9.2-53.8-10.2c0,0-28.8,3.5-43.3-23.3c0,0-2.2,27.1,41.9,34.1C260.6,196.5,262.8,185.2,315.9,195.9z"
		/>
	<path d="M249.9,212.2c0,0,6.9,7.8,36.7-4.6c0,0,27.6-11.4,46.5,9.1c0,0-15.6-8.8-37.2-3.5C295.9,213.1,263.7,223.4,249.9,212.2z"/>
	<path d="M338.2,230.5c0,0-18.7-25.4-58.3-0.6c0,0-16.3,6.9-19.5,1.2c0,0,7,12.2,39.4-2.7C299.7,228.3,316.9,220.7,338.2,230.5z"/>
	<path d="M341.9,243c0,0-12.8-16.2-37.1-1c0,0-8.1,4.4-10.5,1.3c0,0,2.7,8.6,24.4-0.3C318.7,243,324.6,238.6,341.9,243z"/>
	<path d="M369.2,195.7c0,0-1.8,9.7,18.9,8c0,0,5.9-0.3,9.3,9.2c0,0,2.8,14,21.1,8.7c0,0-18.6,9.5-25.8-3.5c0,0-1.1-6.9-8.4-7.9
		C384.4,210.3,368.7,210.1,369.2,195.7z"/>
	<path d="M472.3,212l-1.4-4.8c-13.6-32-43.2,0-43.2,0c-11.5,12.6-25.4,10.8-25.4,10.8c15.5,6.7,28.6-8.3,28.6-8.3
		c14.8-17.7,26.9-14.1,26.9-14.1c13.9,4.7,5.5,15.1,5.5,15.1c-16.3-0.4-23.4,17.9-23.4,17.9c-32.7,80.9-95,69.8-95,69.8
		c-6.8-2.7,5.8-35.1,5.8-35.1c-20,32.8-11.4,43.5-11.4,43.5s40.8,15.7,84.4-40.4c0,0,16-23.8,18.5-29.1c0,0,4.3-17.8,20.2-19.8
		C462.5,217.5,462.8,210.4,472.3,212z"/>
	<path d="M463.5,218.3c0,0,1.5-6.2,7.4-4.8c0,0,6.4,2,5.3,11.3C476.2,224.7,471.4,215.4,463.5,218.3z"/>
	<path d="M474.1,224.1c0,0-7.9,1-15.8-3.9C458.4,220.1,469.8,214.7,474.1,224.1z"/>
	<path d="M446.5,200.1c0,0,10.7-2.5,9.6,3.5c0,0-1.3,3.7-4.3,0.9c0,0,3.3,0.5,3.3-1.7C455.1,202.9,455.3,199.8,446.5,200.1z"/>
	<circle cx="452.9" cy="202.7" r="1.3"/>
	<path d="M435.2,254c0,0,7.8,2.8,20.6-6.9c0,0,5.6-7.4,13.1-6.7c0,0-4.8-4.2-17.5,3.5C451.5,243.9,445.1,253.6,435.2,254z"/>
	<path d="M211.7,307.5c5.7,1.6,11.4,3.6,17.2,4.8c14.5,3.1,29,3,43.6,0.8c16.3-2.4,31.7-7.5,46.1-15.7c3.7-2.1,7.1-4.6,10.6-7.1
		c0.7-0.5,1.4-1.2,1.5-2c1.9-7.6,5.4-14.5,8.9-21.4c0.2-0.5,0.4-0.9,0.5-1.5c-1.9,2.1-3.8,4.3-5.7,6.4c-8.2,8.4-17.8,14.8-28.3,19.8
		c-20.3,9.6-41.9,14.2-64.2,15.7c-9.8,0.7-19.6,0.6-29.4-0.7c-0.2,0-0.4,0.1-0.5,0.2C211.8,307,211.8,307.3,211.7,307.5z"/>
	<g>
		<path d="M498.5,266.5c-4.8-0.4-9.3-0.8-13.1-3.5c-3.6-2.6-4-6.7-2.9-10.7c0.1-0.2,0.5-0.5,0.7-0.5c5.9-0.8,9.5,0.7,12.2,6.2
			c0.5,1.1,1,2.2,1.4,3.3C497.4,262.9,497.9,264.6,498.5,266.5z"/>
		<path d="M494.8,241.6c-3.4-1.7-6.8-1.1-10.3-0.1c-4.2,1.2-8-1.2-8.7-5.5c-0.1-0.4,0-0.9,0.2-1.3c1.8-3.3,4.7-4.7,8.7-3.5
			c5,1.5,8.4,4.8,10.2,9.8c0,0.1,0.1,0.2,0.1,0.4C495,241.4,494.9,241.4,494.8,241.6z"/>
		<path d="M471.5,242.4c0.9,4.1,0.7,8-1.8,11.6c-1,1.4-2.4,2.3-4.1,2.7c-2.3,0.5-4.5,1.2-6.4,3.2c-0.3-3.5-0.1-6.7,1-9.8
			C462,245.1,466.2,242.2,471.5,242.4z"/>
		<path d="M481.6,250.4c-8.2-5.8-11-13.9-10.1-23.6c0-0.3,0.4-0.7,0.6-0.8c0.7-0.3,1.5-0.5,2.3-0.7c0,1.7,0,3.3-0.1,4.9
			c-0.6,7.5,1.8,14,6.8,19.5C481.3,250,481.4,250.2,481.6,250.4z"/>
	</g>
</g>
<path class="st2" d="M721.6,305.6l-3.3-1.3l0.5-0.2c5.2-2.1,8-7.9,6.2-13.3l-7-21.8c-1.4-4.4-5.6-7.5-10.2-7.5h-51.4
	c-3.5,0-6.6,1.7-8.6,4.3c-2-2.7-5.1-4.3-8.6-4.3H633c-1.4,0-2.9,0.3-4.1,0.8c-0.5-0.2-0.9-0.3-1.4-0.4c-3.6-1-7.4-1.6-11.1-1.6
	c-7.7,0-14.9,2.1-21.4,6.3c-4.3,2.8-8,6.3-11.1,10.5c-3-4.2-6.7-7.6-11-10.2c-6-3.6-13.8-5.4-23-5.4h-32.3c-1.1,0-2.2,0.2-3.2,0.5
	c-1-0.3-2.1-0.5-3.2-0.5h-30.1c-4.4,0-8.1,2.6-9.8,6.3c-0.1-0.1-0.3-0.2-0.4-0.3c-3.7-2.6-7.8-4.3-12.3-5.1
	c-3.5-0.6-6.8-0.9-9.8-0.9h-38c-3.9,0-7.2,2-9.1,5.1c-1.2-0.7-2.4-1.4-3.7-2c-4.5-2.1-10.1-3.1-17.1-3.1h-35c-2.6,0-5,0.9-6.9,2.5
	c-1.9-1.6-4.3-2.5-6.9-2.5h-51.4c-1,0-2,0.1-2.9,0.4c-0.9-0.3-1.9-0.4-2.9-0.4h-25.4c-1.9,0-3.8,0.5-5.3,1.4
	c-1.6-0.9-3.4-1.4-5.3-1.4h-25c-5.5,0-10,4.1-10.7,9.4c-7.7-7-17.4-10.5-28.7-10.5c-12.9,0-23.6,4.5-31.8,13.3l-2.2-6.9
	c-1.4-4.5-5.6-7.5-10.3-7.5h-5.9c-2.5,0-4.8,0.9-6.7,2.3H94.9c-1.9-1.5-4.2-2.3-6.7-2.3h-5.8c-3,0-5.7,1.2-7.7,3.2l-0.4-1.8
	c-1.1-4.9-5.5-8.4-10.5-8.4h-7.2c-1.7,0-3.3,0.4-4.7,1.1c-4.3-1.6-8.8-2.4-13.6-2.4c-6.7,0-13,1.5-18.7,4.5
	c-5.9,3.1-10.5,7.3-13.5,12.5c-3,5.1-4.6,10.8-4.6,16.9c0,4.3,0.8,8.4,2.4,12.3c0.6,1.4,1.2,2.7,1.9,4c-4.1,2.1-6.5,6.6-5.7,11.3
	l5,30.2c0.9,5.2,5.3,9,10.6,9h7.5c2.2,0,4.2-0.6,5.9-1.8c0.8,0.4,1.7,0.7,2.5,1c4.2,1.4,8.8,2.2,13.7,2.2c10.8,0,20-3.6,27.5-10.8
	c3.4-3.3,5.9-7,7.7-11.1c0,0.1,0,0.2,0,0.3v9.5c0,5.9,4.8,10.8,10.8,10.8h30.1c5.9,0,10.8-4.8,10.8-10.8v-9.5
	c0-4.8-3.1-8.8-7.4-10.2V307c1.8,0.9,3.7,1.3,5.8,1.2c0.2,13.7,4.9,25.1,13.8,33.6c7.8,7.6,17.9,11.4,29.8,11.4c8.8,0,16.7-2,23.2-6
	c2.2-1.3,4.1-2.8,6-4.5c0.7,5.2,5.2,9.2,10.6,9.2h25.5c3,0,5.8-1.3,7.7-3.3c2,2.1,4.8,3.3,7.7,3.3h12.7c2.5,0,4.8-0.9,6.6-2.3
	c1.8,1.4,4.1,2.3,6.6,2.3H334c2.2,0,4.2-0.7,5.9-1.8c1.7,1.1,3.7,1.8,5.9,1.8h32.3c8.6,0,15.2-1.1,20.2-3.4c1.1-0.5,2.2-1.1,3.3-1.7
	c1.9,3,5.3,5.1,9.1,5.1h30.2c3.6,0,6.8-1.8,8.7-4.5c2,2.8,5.3,4.5,8.7,4.5h19.7c0.5,0,1,0,1.5-0.1c0.5,0.1,1,0.1,1.5,0.1h30.1
	c1.1,0,2.2-0.2,3.2-0.5c1,0.3,2.1,0.5,3.2,0.5H546c3.2,0,7-0.4,11.8-1.3c5.2-1,9.4-2.3,12.6-4c4.2-2.2,8.1-5.5,11.6-9.7
	c0.4-0.5,0.8-1,1.2-1.5c3.1,4.6,6.9,8.4,11.4,11.4c6.4,4.2,13.6,6.4,21.3,6.4c4.4,0,8.7-0.7,12.8-2.1c0.6-0.2,1.2-0.4,1.8-0.7
	c1.7,1,3.6,1.6,5.6,1.6h9c2,0,3.9-0.6,5.6-1.6c1.6,1,3.5,1.6,5.6,1.6h53.3c4.7,0,8.8-3,10.3-7.5l8.1-25.6
	C729.7,313.5,726.9,307.7,721.6,305.6z M87.9,321.5c-2.3,0.7-4.2,2.2-5.5,4.2c0.6-2.6,0.9-5.3,0.9-8.1c0-3.3-0.5-6.5-1.3-9.5
	c2.1,0.2,4.1-0.2,5.9-1.2V321.5z"/>
<g>
	<path class="st3" d="M54.6,297.8l-13.4-4.4c-3.7-1.2-6.3-2.5-7.6-3.9c-1.3-1.3-1.9-2.7-1.9-4.3c0-1.2,0.7-2.4,2-3.4
		c1.4-1.1,3.5-1.7,6-1.7c4.1,0,8.1,1.4,11.8,4.1c3.8,2.8,7.2,7.2,10.2,13.3c0.3,0.5,0.9,0.8,1.4,0.6l9.4-3c0.6-0.2,0.9-0.8,0.8-1.4
		l-6-26.2c-0.1-0.5-0.6-0.9-1.2-0.9H59c-0.5,0-0.9,0.3-1.1,0.7l-1.3,2.7c-4.8-3.1-10.1-4.7-15.9-4.7c-5.2,0-10,1.1-14.2,3.4
		c-4.3,2.3-7.6,5.3-9.7,8.9c-2.2,3.7-3.2,7.7-3.2,12c0,3,0.6,6,1.7,8.8c1.1,2.8,2.6,5.1,4.3,6.8c1.7,1.8,4.1,3.5,7.3,5.1
		c3.1,1.6,5.5,2.7,7.4,3.2l11.7,3.8c4.7,1.5,8.1,3,9.9,4.5c1.7,1.4,2.5,3,2.5,4.8c0,1.1-0.3,2.2-1.1,3.3c-0.7,1.1-1.8,1.9-3.2,2.5
		c-1.5,0.6-3.4,1-5.8,1c-5.2,0-10.1-2-14.5-5.9c-4.5-4-7.8-9-9.9-14.9c-0.2-0.6-0.8-0.9-1.4-0.8l-9.4,2.5c-0.6,0.2-1,0.7-0.9,1.3
		l5,30.2c0.1,0.6,0.6,1,1.2,1h7.5c0.5,0,0.9-0.3,1.1-0.8l1.6-4.2c3,2.1,6,3.6,8.8,4.6c3.2,1.1,6.8,1.7,10.6,1.7
		c8.3,0,15.3-2.7,20.8-8.1c5-4.9,7.6-10.9,7.6-18c0-5.5-1.7-10.5-5-14.7C67.8,303.6,62.3,300.2,54.6,297.8z"/>
	<path class="st3" d="M133.7,274.5c-0.2-0.5-0.6-0.8-1.1-0.8h-5.9c-0.5,0-1,0.3-1.1,0.8l-0.5,1.5H92.1l-0.4-1.4
		c-0.1-0.5-0.6-0.9-1.2-0.9h-5.8c-0.5,0-1,0.3-1.1,0.8L76,298.6c-0.2,0.6,0.1,1.2,0.7,1.5l8.1,3.2c0.6,0.2,1.3,0,1.5-0.6
		c1.9-4.2,3.1-6.7,3.7-7.6c1.4-2.2,3-3.9,4.7-5.1c1.7-1.1,3.2-1.7,4.5-1.7c0.3,0,0.5,0,0.6,0c0,0.2,0.1,0.6,0.1,1.4v40.5
		c0,2.8-0.2,3.7-0.4,4c-0.2,0.4-0.4,0.7-0.7,0.9c-0.1,0-0.7,0.3-3.3,0.3h-1.8c-0.7,0-1.2,0.5-1.2,1.2v9.5c0,0.7,0.5,1.2,1.2,1.2
		h30.1c0.7,0,1.2-0.5,1.2-1.2v-9.5c0-0.7-0.5-1.2-1.2-1.2c-3.4,0-4.4-0.1-4.8-0.2c-0.4-0.1-0.7-0.2-0.9-0.4
		c-0.2-0.2-0.3-0.5-0.4-0.8c-0.1-0.2-0.2-1.1-0.2-4.1v-39.6c0-1.5,0.2-1.9,0.2-1.9c0,0,0.1-0.1,0.5-0.1c1.2,0,2.5,0.5,3.9,1.4
		c1.9,1.3,3.6,3.1,5.1,5.3c0.8,1.2,2.1,3.8,3.8,7.7c0.3,0.6,0.9,0.9,1.5,0.6l8.2-3.2c0.6-0.2,0.9-0.9,0.7-1.5L133.7,274.5z"/>
	<path class="st3" d="M176.8,274.8c-10.2,0-18.6,3.5-25,10.4c-6.3,6.9-9.5,15.8-9.5,26.6c0,11.6,3.7,21,10.9,27.9
		c6,5.8,13.8,8.7,23.2,8.7c7.1,0,13.2-1.5,18.3-4.6c5-3,9.1-7.4,11.9-13c2.8-5.6,4.3-12,4.3-19.2c0-10.7-3.2-19.6-9.4-26.4
		C195.2,278.3,186.9,274.8,176.8,274.8z M191.3,311.8c0,7.5-1.6,13.5-4.7,17.9c-2.6,3.6-5.9,5.3-10.1,5.3c-4.2,0-7.5-1.7-10.1-5.3
		c-3.1-4.3-4.6-10.3-4.6-17.8c0-7.5,1.7-13.7,5-18.4c2.6-3.6,5.9-5.4,10.2-5.4c2.5,0,4.9,0.8,7,2.5c2.2,1.7,4,4.3,5.3,7.8
		C190.7,302,191.3,306.5,191.3,311.8z"/>
	<path class="st3" d="M277.3,276h-25.4c-0.7,0-1.2,0.5-1.2,1.2v9.5c0,0.7,0.5,1.2,1.2,1.2h3c1.7,0,2.2,0.2,2.3,0.3
		c0.3,0.2,0.5,0.5,0.7,1.1c0,0.1,0.2,0.7,0.2,3.5v19l-15.8-35.1c-0.2-0.4-0.6-0.7-1.1-0.7h-25c-0.7,0-1.2,0.5-1.2,1.2v9.5
		c0,0.7,0.5,1.2,1.2,1.2h3.3c1.3,0,1.8,0.2,1.9,0.3c0.3,0.2,0.5,0.5,0.7,1c0.2,0.4,0.3,1.2,0.3,2.9v39.5c0,1.5-0.2,2.2-0.4,2.6
		c-0.2,0.4-0.5,0.7-0.8,0.9c-0.1,0.1-0.7,0.3-2.5,0.3h-2.6c-0.7,0-1.2,0.5-1.2,1.2v9.5c0,0.7,0.5,1.2,1.2,1.2h25.5
		c0.7,0,1.2-0.5,1.2-1.2v-9.5c0-0.7-0.5-1.2-1.2-1.2h-2.9c-1.6,0-2.2-0.2-2.4-0.3c-0.3-0.2-0.5-0.4-0.7-0.7
		c-0.1-0.1-0.2-0.8-0.2-3.5v-29.9l20.6,45.7c0.2,0.4,0.6,0.7,1.1,0.7h12.7c0.7,0,1.2-0.5,1.2-1.2v-53.3c0-2.6,0.2-3.4,0.3-3.6
		c0.1-0.4,0.4-0.7,0.8-0.9c0.2-0.1,0.8-0.4,2.4-0.4h2.8c0.7,0,1.2-0.5,1.2-1.2v-9.5C278.5,276.5,277.9,276,277.3,276z"/>
	<path class="st3" d="M344.9,319.3l-8.1-3.1c-0.3-0.1-0.7-0.1-1,0s-0.5,0.4-0.6,0.7c-1.1,3.6-2.6,6.8-4.6,9.5
		c-1.9,2.6-4.2,4.5-6.6,5.6c-2.5,1.2-5.6,1.7-9.3,1.7h-5.2c-1.8,0-2.2-0.2-2.3-0.2c-0.1-0.1-0.2-0.1-0.2-0.2c0-0.1-0.1-0.5-0.1-2.6
		v-14.6h1.6c3.2,0,4.2,0.3,4.4,0.4c0.5,0.2,0.8,0.6,1.1,1.3c0.2,0.5,0.5,1.6,0.5,3.9v3c0,0.7,0.5,1.2,1.2,1.2h7.9
		c0.7,0,1.2-0.5,1.2-1.2v-29.2c0-0.7-0.5-1.2-1.2-1.2h-7.9c-0.7,0-1.2,0.5-1.2,1.2v2.6c0,2.9-0.3,4-0.4,4.3
		c-0.2,0.5-0.6,0.9-1.2,1.2c-0.4,0.2-1.4,0.5-4.2,0.5h-1.9v-14.8h8.2c2.8,0,5.2,0.3,7.3,1c2,0.6,3.8,2,5.5,3.9
		c1.7,2.1,3.2,4.8,4.5,8.2c0.1,0.3,0.3,0.5,0.6,0.7c0.3,0.1,0.6,0.1,0.9,0l8-3.2c0.6-0.2,0.9-0.9,0.7-1.5l-7-21.8
		c-0.2-0.5-0.6-0.8-1.1-0.8h-51.4c-0.7,0-1.2,0.5-1.2,1.2v9.5c0,0.7,0.5,1.2,1.2,1.2h2.7c1.9,0,2.4,0.3,2.5,0.3
		c0.3,0.2,0.5,0.4,0.7,0.8c0.1,0.2,0.3,1,0.3,3.6v37.5c0,3.1-0.1,3.8-0.2,3.8c-0.2,0.5-0.5,0.9-0.9,1c-0.2,0.1-1.1,0.4-3.6,0.4h-1.5
		c-0.7,0-1.2,0.5-1.2,1.2v9.5c0,0.7,0.5,1.2,1.2,1.2h53.3c0.5,0,1-0.3,1.1-0.8l8.1-25.6C345.8,320.2,345.5,319.5,344.9,319.3z"/>
	<path class="st3" d="M401.1,311.4c-1.1-0.7-2.4-1.3-4-1.9c1.6-0.8,2.9-1.8,4-2.8c1.8-1.7,3.1-3.6,4-5.8c0.9-2.2,1.4-4.5,1.4-6.9
		c0-3.3-0.9-6.5-2.7-9.3c-1.8-2.8-4.3-5-7.6-6.5c-3.2-1.5-7.6-2.2-13.1-2.2h-35c-0.7,0-1.2,0.5-1.2,1.2v9.5c0,0.7,0.5,1.2,1.2,1.2
		h2.4c2,0,2.6,0.3,2.7,0.3c0.3,0.2,0.6,0.4,0.7,0.8c0,0.1,0.3,0.8,0.3,3.4v38.4c0,2.6-0.2,3.3-0.3,3.4c-0.1,0.3-0.3,0.6-0.7,0.7
		c-0.1,0.1-0.7,0.3-2.7,0.3h-2.4c-0.7,0-1.2,0.5-1.2,1.2v9.5c0,0.7,0.5,1.2,1.2,1.2h32.3c7.1,0,12.6-0.8,16.3-2.5
		c3.8-1.7,6.8-4.2,8.9-7.5c2.1-3.3,3.1-6.9,3.1-10.7c0-3.2-0.7-6.2-2.1-8.9C405.4,314.9,403.5,312.8,401.1,311.4z M388.2,300.4
		c-0.7,1.1-1.8,1.9-3.2,2.5c-1.5,0.6-4,0.9-7.4,0.9H372v-14.4h5.6c3.8,0,6.4,0.3,7.8,0.7c1.3,0.5,2.2,1.2,2.9,2.3c0.7,1.1,1,2.4,1,4
		C389.3,298,388.9,299.3,388.2,300.4z M372,316.4h6.8c3.3,0,5.8,0.3,7.3,1c1.5,0.6,2.6,1.5,3.3,2.7c0.7,1.2,1.1,2.8,1.1,4.6
		c0,2.1-0.5,4-1.6,5.5c-1.1,1.5-2.3,2.5-3.8,2.9c-1.6,0.5-3.7,0.8-6.1,0.8h-4.5c-1.7,0-2.2-0.1-2.2-0.1c0,0-0.1-0.1-0.1-0.3
		c0-0.1-0.1-0.6-0.2-3.4V316.4z"/>
	<path class="st3" d="M480.6,335.3h-2.7c-1.3,0-2.1-0.2-2.4-0.3c-0.5-0.2-1.1-0.5-1.7-1c-0.6-0.5-1.3-1.2-2-2.3L459.6,316
		c4-1.2,7.6-3.2,10.6-6.2c3.6-3.5,5.4-8,5.4-13.6c0-3.4-0.7-6.5-2.1-9.2c-1.4-2.7-3.3-5-5.8-6.8c-2.5-1.8-5.3-2.9-8.4-3.5
		c-3-0.5-5.7-0.8-8.2-0.8h-38c-0.7,0-1.2,0.5-1.2,1.2v9.8c0,0.7,0.5,1.2,1.2,1.2l2.4,0l1.2,0c0.7,0,1.4,0.1,1.9,0.4c0,0,0.1,0,0.1,0
		c0.1,0,0.2,0.1,0.4,0.5c0.1,0.3,0.3,1,0.3,2.8v38.7c0,2.7-0.1,3.2-0.1,3.2c-0.2,0.5-0.5,0.8-0.8,1c-0.2,0.1-0.8,0.4-2.5,0.4h-2.8
		c-0.7,0-1.2,0.5-1.2,1.2v9.5c0,0.7,0.5,1.2,1.2,1.2h30.2c0.7,0,1.2-0.5,1.2-1.2v-9.5c0-0.7-0.5-1.2-1.2-1.2h-2.8
		c-2,0-2.4-0.3-2.5-0.3c-0.3-0.2-0.5-0.4-0.6-0.8c-0.1-0.2-0.3-1.1-0.3-4.1v-12.5h3.3l19.4,29.1c0.2,0.3,0.6,0.5,1,0.5h19.7
		c0.7,0,1.2-0.5,1.2-1.2v-9.5C481.7,335.8,481.2,335.3,480.6,335.3z M437.1,289.7h9c3.3,0,5.7,0.3,7.1,0.9c1.3,0.5,2.3,1.3,3,2.4
		c0.7,1.1,1.1,2.5,1.1,4c0,1.7-0.4,3.2-1.2,4.4c-0.8,1.2-1.9,2.1-3.5,2.7c-1.6,0.7-4.2,1-7.6,1h-7.9V289.7z"/>
	<path class="st3" d="M513.6,276h-30.1c-0.7,0-1.2,0.5-1.2,1.2v9.5c0,0.7,0.5,1.2,1.2,1.2h2.8c1.9,0,2.4,0.2,2.4,0.2
		c0.4,0.2,0.6,0.5,0.8,1c0.1,0.2,0.3,1.1,0.3,3.8v38.3c0,2.2-0.2,3-0.3,3.2c-0.1,0.3-0.3,0.6-0.6,0.7c-0.1,0-0.6,0.3-2.9,0.3h-2.4
		c-0.7,0-1.2,0.5-1.2,1.2v9.5c0,0.7,0.5,1.2,1.2,1.2h30.1c0.7,0,1.2-0.5,1.2-1.2v-9.5c0-0.7-0.5-1.2-1.2-1.2h-3.3
		c-1.2,0-1.8-0.2-2.1-0.4c0,0-0.1,0-0.1-0.1c-0.2-0.1-0.4-0.2-0.5-0.6c-0.1-0.2-0.2-1-0.2-3.6v-38.1c0-2.3,0.2-3.2,0.3-3.5
		c0.2-0.4,0.4-0.7,0.6-0.9c0,0,0.5-0.3,2.5-0.3h2.7c0.7,0,1.2-0.5,1.2-1.2v-9.5C514.8,276.5,514.3,276,513.6,276z"/>
	<path class="st3" d="M570.4,280c-4.5-2.7-10.6-4.1-18.1-4.1H520c-0.7,0-1.2,0.5-1.2,1.2v9.5c0,0.7,0.5,1.2,1.2,1.2h2.1
		c2.4,0,3,0.3,3.1,0.3c0.3,0.2,0.6,0.4,0.7,0.8c0.1,0.2,0.3,0.9,0.3,3.6v37.6c0,2.7-0.2,3.5-0.2,3.6c-0.3,0.6-0.6,0.9-0.9,1.1
		c-0.1,0.1-0.7,0.3-3,0.3H520c-0.7,0-1.2,0.5-1.2,1.2v9.5c0,0.7,0.5,1.2,1.2,1.2h28.5c2.5,0,5.9-0.4,10.1-1.2c4.2-0.8,7.5-1.8,9.9-3
		c3.1-1.6,6-4.1,8.7-7.4c2.7-3.2,4.7-6.9,6.1-11c1.3-4,2-8.6,2-13.7c0-7.3-1.3-13.7-4-18.9C578.5,286.8,574.9,282.8,570.4,280z
		 M543.7,289.4h5.6c4.1,0,7.2,0.7,9.3,2.1c2.1,1.4,3.9,3.8,5.4,7.3c1.5,3.5,2.3,7.8,2.3,12.6c0,4.9-0.8,9.1-2.4,12.6
		c-1.6,3.4-3.6,6-6.1,7.5c-2.5,1.5-6.1,2.3-10.7,2.3c-2.3,0-2.8-0.2-2.9-0.2c-0.1,0-0.3-0.1-0.4-0.4c0,0-0.1-0.4-0.1-2.2V289.4z"/>
	<path class="st3" d="M654.5,308.1h-30.1c-0.7,0-1.2,0.5-1.2,1.2v9.6c0,0.7,0.5,1.2,1.2,1.2h3.5c1.9,0,2.5,0.2,2.6,0.3
		c0.3,0.2,0.6,0.5,0.8,0.9c0,0.1,0.2,0.6,0.2,2.8v2.5c0,1.8-0.3,3.2-0.9,4.2c-0.6,1-1.7,1.9-3.4,2.8c-1.7,0.9-3.6,1.3-5.5,1.3
		c-2.8,0-5.2-0.9-7.5-2.6c-2.3-1.8-4.2-4.6-5.7-8.3c-1.5-3.8-2.2-8.4-2.2-13.7c0-4.8,0.7-8.8,2-12.2c1.3-3.2,3.1-5.7,5.4-7.4
		c2.2-1.7,4.6-2.5,7.1-2.5c1.8,0,3.6,0.5,5.5,1.4c1.9,0.9,3.7,2.3,5.2,4c1.5,1.7,3.7,5.1,6.4,10c0.3,0.5,0.9,0.7,1.5,0.5l8.1-3
		c0.6-0.2,0.9-0.8,0.8-1.4l-5.6-22.8c-0.1-0.5-0.6-0.9-1.2-0.9h-6.2c-0.4,0-0.8,0.2-1.1,0.6l-1,1.9c-1.8-1-3.8-1.9-6.1-2.5
		c-2.8-0.8-5.6-1.2-8.4-1.2c-5.8,0-11.3,1.6-16.2,4.8c-4.9,3.2-8.8,7.6-11.6,13.1c-2.7,5.5-4.1,11.7-4.1,18.6c0,7,1.4,13.4,4.2,19
		c2.8,5.7,6.6,10.1,11.4,13.3c4.8,3.2,10.2,4.8,16,4.8c3.3,0,6.6-0.5,9.7-1.6c2.7-0.9,5.3-2.2,7.7-3.9l1.7,3.6
		c0.2,0.4,0.6,0.7,1.1,0.7h9c0.7,0,1.2-0.5,1.2-1.2v-21.6c0-2.2,0.2-3,0.3-3.2c0.2-0.4,0.4-0.6,0.7-0.8c0.1-0.1,0.7-0.3,2.5-0.3h2.3
		c0.7,0,1.2-0.5,1.2-1.2v-9.6C655.7,308.6,655.2,308.1,654.5,308.1z"/>
	<path class="st3" d="M720.6,319.3l-8.1-3.1c-0.3-0.1-0.7-0.1-1,0c-0.3,0.1-0.5,0.4-0.6,0.7c-1.1,3.6-2.6,6.8-4.6,9.5
		c-2,2.6-4.2,4.5-6.6,5.6c-2.5,1.2-5.6,1.7-9.3,1.7h-5.2c-1.8,0-2.2-0.2-2.3-0.2c-0.1-0.1-0.2-0.1-0.2-0.2c0-0.1-0.1-0.6-0.1-2.6
		v-14.6h1.6c3.2,0,4.1,0.3,4.4,0.4c0.5,0.2,0.8,0.6,1.1,1.3c0.2,0.5,0.5,1.6,0.5,3.9v3c0,0.7,0.5,1.2,1.2,1.2h7.9
		c0.7,0,1.2-0.5,1.2-1.2v-29.2c0-0.7-0.5-1.2-1.2-1.2h-7.9c-0.7,0-1.2,0.5-1.2,1.2v2.6c0,2.9-0.3,4-0.4,4.3
		c-0.2,0.5-0.6,0.9-1.2,1.2c-0.4,0.2-1.4,0.5-4.2,0.5h-1.9v-14.8h8.2c2.8,0,5.2,0.3,7.3,1c2,0.6,3.8,2,5.5,3.9
		c1.7,2.1,3.2,4.8,4.5,8.2c0.1,0.3,0.3,0.5,0.6,0.7c0.3,0.1,0.6,0.1,0.9,0l8-3.2c0.6-0.2,0.9-0.9,0.7-1.5l-7-21.8
		c-0.2-0.5-0.6-0.8-1.1-0.8h-51.4c-0.7,0-1.2,0.5-1.2,1.2v9.5c0,0.7,0.5,1.2,1.2,1.2h2.7c1.9,0,2.4,0.3,2.5,0.3
		c0.3,0.2,0.5,0.4,0.7,0.8c0.1,0.2,0.3,1,0.3,3.6v37.5c0,3.1-0.1,3.8-0.2,3.8c-0.2,0.5-0.5,0.9-0.9,1c-0.2,0.1-1.1,0.4-3.6,0.4h-1.5
		c-0.7,0-1.2,0.5-1.2,1.2v9.5c0,0.7,0.5,1.2,1.2,1.2h53.3c0.5,0,1-0.3,1.1-0.8l8.1-25.6C721.5,320.2,721.2,319.5,720.6,319.3z"/>
</g>
<g>
	<path class="st2" d="M52.6,291.9l-13.4-4.4c-4.4-1.4-6.3-2.7-7.1-3.6c-1.1-1.1-1.6-2.2-1.6-3.4c0-0.3,0-1.2,1.6-2.5
		c1.2-1,3-1.4,5.3-1.4c3.9,0,7.6,1.3,11.1,3.9c3.6,2.7,6.9,7,9.8,12.8c0.5,1.1,1.7,1.6,2.9,1.2l9.4-3c1.2-0.4,1.9-1.6,1.6-2.8
		l-6-26.2c-0.2-1.1-1.2-1.9-2.3-1.9h-7.2c-0.9,0-1.7,0.5-2.1,1.3l-0.8,1.5c-4.7-2.8-9.8-4.2-15.4-4.2c-5.4,0-10.3,1.2-14.8,3.5
		c-4.5,2.4-7.9,5.5-10.2,9.4c-2.3,3.8-3.4,8.1-3.4,12.6c0,3.2,0.6,6.3,1.8,9.2c1.2,2.9,2.7,5.3,4.5,7.2c1.8,1.9,4.3,3.6,7.6,5.3
		c3.2,1.6,5.6,2.7,7.5,3.3l11.7,3.8c4.6,1.5,7.8,2.9,9.5,4.3c1.4,1.2,2,2.4,2,3.9c0,0.9-0.3,1.7-0.9,2.6c-0.6,0.9-1.4,1.6-2.7,2.1
		c-1.3,0.6-3.1,0.9-5.3,0.9c-5,0-9.5-1.8-13.7-5.6c-4.3-3.8-7.6-8.7-9.6-14.4c-0.4-1.2-1.7-1.8-2.9-1.5l-9.4,2.5
		c-1.2,0.3-1.9,1.5-1.7,2.7l5,30.2c0.2,1.2,1.2,2,2.4,2h7.5c1,0,1.9-0.6,2.2-1.5l1.1-2.8c2.7,1.7,5.3,3,7.8,3.9
		c3.3,1.1,7,1.7,11,1.7c8.6,0,15.9-2.8,21.7-8.4c5.3-5.1,7.9-11.4,7.9-18.8c0-5.8-1.8-11-5.2-15.4C66.2,297.9,60.5,294.4,52.6,291.9
		z"/>
	<path class="st2" d="M140.1,293.5l-7.6-24.1c-0.3-1-1.2-1.7-2.3-1.7h-5.9c-1,0-2,0.7-2.3,1.7l-0.2,0.7H90.7l-0.1-0.5
		c-0.3-1-1.2-1.8-2.3-1.8h-5.8c-1,0-2,0.7-2.3,1.7l-7.6,24.1c-0.4,1.2,0.2,2.5,1.4,2.9l8.1,3.2c1.2,0.5,2.5-0.1,3.1-1.2
		c2.4-5.4,3.3-7,3.6-7.5c1.3-2,2.8-3.6,4.4-4.7c1.2-0.8,2.3-1.3,3.2-1.5c0,0.1,0,0.1,0,0.2v40.5c0,2.7-0.2,3.4-0.3,3.5
		c-0.1,0.2-0.1,0.2-0.1,0.2c-0.2,0-0.8,0.2-2.8,0.2h-1.8c-1.3,0-2.4,1.1-2.4,2.4v9.5c0,1.3,1.1,2.4,2.4,2.4h30.1
		c1.3,0,2.4-1.1,2.4-2.4v-9.5c0-1.3-1.1-2.4-2.4-2.4c-3.6,0-4.4-0.1-4.5-0.1c-0.1,0-0.2-0.1-0.2-0.1h0c0,0-0.1-0.1-0.1-0.3
		c0-0.1-0.2-0.8-0.2-3.8v-39.6c0-0.3,0-0.5,0-0.7c0.8,0.1,1.7,0.5,2.6,1.1c1.8,1.2,3.3,2.9,4.7,5c0.5,0.8,1.6,2.7,3.8,7.5
		c0.5,1.2,1.9,1.7,3,1.2l8.2-3.2C139.9,296,140.5,294.7,140.1,293.5z"/>
	<path class="st2" d="M174.4,268.8c-10.6,0-19.3,3.6-25.9,10.8c-6.5,7.1-9.8,16.3-9.8,27.4c0,11.9,3.8,21.6,11.2,28.8
		c6.2,6,14.3,9.1,24,9.1c7.3,0,13.7-1.6,18.9-4.8c5.2-3.2,9.4-7.7,12.4-13.5c2.9-5.7,4.4-12.4,4.4-19.7c0-11-3.3-20.2-9.7-27.2
		C193.4,272.4,184.9,268.8,174.4,268.8z M174.2,329.1c-3.8,0-6.8-1.6-9.1-4.8c-2.9-4.1-4.4-9.9-4.4-17.1c0-7.3,1.6-13.2,4.8-17.7
		c2.3-3.3,5.3-4.9,9.2-4.9c2.3,0,4.3,0.7,6.3,2.3c2,1.6,3.7,4,4.9,7.3c1.3,3.4,1.9,7.8,1.9,12.9c0,7.2-1.5,13-4.5,17.2
		C181,327.5,178,329.1,174.2,329.1z"/>
	<path class="st2" d="M274.9,270h-25.4c-1.3,0-2.4,1.1-2.4,2.4v9.5c0,1.3,1.1,2.4,2.4,2.4h3c1,0,1.5,0.1,1.7,0.1
		c0,0.1,0.1,0.2,0.2,0.4c0,0.1,0.2,0.7,0.2,3.1v13.4l-13.5-30c-0.4-0.9-1.2-1.4-2.2-1.4h-25c-1.3,0-2.4,1.1-2.4,2.4v9.5
		c0,1.3,1.1,2.4,2.4,2.4h3.3c0.9,0,1.2,0.1,1.2,0.1c0,0,0.1,0.1,0.2,0.4c0.1,0.1,0.3,0.8,0.3,2.4v39.5c0,1.4-0.2,2-0.3,2.1
		c-0.1,0.3-0.2,0.3-0.2,0.3c-0.1,0-0.5,0.2-1.9,0.2h-2.6c-1.3,0-2.4,1.1-2.4,2.4v9.5c0,1.3,1.1,2.4,2.4,2.4h25.5
		c1.3,0,2.4-1.1,2.4-2.4v-9.5c0-1.3-1.1-2.4-2.4-2.4h-2.9c-1.3,0-1.8-0.2-1.8-0.2c-0.1-0.1-0.1-0.1-0.1-0.1c0-0.1-0.2-0.7-0.2-3.1
		v-24.4l18.3,40.6c0.4,0.9,1.2,1.4,2.2,1.4h12.7c1.3,0,2.4-1.1,2.4-2.4V288c0-2.5,0.2-3.2,0.2-3.2c0-0.1,0.1-0.2,0.2-0.3
		c0,0,0.4-0.2,1.8-0.2h2.8c1.3,0,2.4-1.1,2.4-2.4v-9.5C277.3,271.1,276.2,270,274.9,270z"/>
	<path class="st2" d="M342.9,313.4l-8.1-3.1c-0.6-0.2-1.3-0.2-1.9,0.1c-0.6,0.3-1,0.8-1.2,1.5c-1,3.5-2.5,6.6-4.4,9.1
		c-1.8,2.4-3.9,4.2-6.2,5.3c-2.3,1.1-5.3,1.6-8.8,1.6h-5.2c-0.7,0-1.1,0-1.4-0.1c0-0.4,0-0.9,0-1.8v-13.4h0.4c3.1,0,3.9,0.3,3.9,0.3
		c0.2,0.1,0.5,0.5,0.6,0.7c0.1,0.3,0.4,1.2,0.4,3.4v3c0,1.3,1.1,2.4,2.4,2.4h7.9c1.3,0,2.4-1.1,2.4-2.4v-29.2c0-1.3-1.1-2.4-2.4-2.4
		h-7.9c-1.3,0-2.4,1.1-2.4,2.4v2.6c0,3-0.3,3.8-0.3,3.9c-0.1,0.3-0.3,0.4-0.6,0.6c-0.1,0-0.8,0.3-3.7,0.3h-0.7v-12.4h7
		c2.7,0,5,0.3,6.9,0.9c1.7,0.6,3.4,1.8,4.9,3.6c1.6,2,3.1,4.6,4.4,7.9c0.2,0.6,0.7,1.1,1.3,1.3c0.6,0.3,1.3,0.3,1.8,0l8-3.2
		c1.2-0.5,1.8-1.8,1.4-3l-7-21.8c-0.3-1-1.2-1.7-2.3-1.7h-51.4c-1.3,0-2.4,1.1-2.4,2.4v9.5c0,1.3,1.1,2.4,2.4,2.4h2.7
		c1.5,0,2,0.2,1.9,0.1c0,0,0.1,0.1,0.2,0.2c0,0.1,0.2,0.7,0.2,3.1v37.5c0,2.5-0.1,3.3-0.1,3.5c-0.1,0.2-0.2,0.3-0.2,0.3
		c0,0-0.7,0.3-3.1,0.3h-1.5c-1.3,0-2.4,1.1-2.4,2.4v9.5c0,1.3,1.1,2.4,2.4,2.4H334c1,0,2-0.7,2.3-1.7l8.1-25.6
		C344.7,315.2,344.1,313.9,342.9,313.4z"/>
	<path class="st2" d="M399.4,305.6c-0.6-0.4-1.2-0.7-2-1.1c0.8-0.5,1.5-1.1,2.2-1.8c1.9-1.8,3.3-3.9,4.3-6.2c1-2.3,1.5-4.8,1.5-7.4
		c0-3.6-1-6.9-2.8-9.9c-1.9-3-4.6-5.3-8.1-6.9c-3.4-1.6-7.9-2.3-13.6-2.3h-35c-1.3,0-2.4,1.1-2.4,2.4v9.5c0,1.3,1.1,2.4,2.4,2.4h2.4
		c1.6,0,2.1,0.2,2.1,0.2c0.2,0.1,0.2,0.1,0.2,0.1c0,0.1,0.2,0.7,0.2,3V326c0,2.3-0.2,2.9-0.2,3c0,0,0,0.1-0.1,0.1
		c0,0-0.5,0.2-2.2,0.2h-2.4c-1.3,0-2.4,1.1-2.4,2.4v9.5c0,1.3,1.1,2.4,2.4,2.4h32.3c7.3,0,12.8-0.9,16.8-2.6c4-1.8,7.2-4.5,9.4-7.9
		c2.2-3.5,3.3-7.3,3.3-11.4c0-3.4-0.7-6.6-2.2-9.4C404,309.4,401.9,307.2,399.4,305.6z M384.8,295c-0.6,0.9-1.5,1.6-2.7,2
		c-1,0.4-3,0.8-7,0.8h-4.4v-12h4.4c4.8,0,6.7,0.4,7.4,0.7c1,0.4,1.8,0.9,2.3,1.8c0.6,0.9,0.8,2,0.8,3.4
		C385.7,293,385.4,294.1,384.8,295z M370.8,312.8h5.6c3.9,0,5.9,0.5,6.9,0.9c1.2,0.5,2.1,1.3,2.7,2.2c0.6,1,0.9,2.4,0.9,3.9
		c0,1.9-0.4,3.5-1.4,4.8c-0.9,1.3-1.9,2.1-3.2,2.5c-1.5,0.5-3.4,0.7-5.8,0.7h-4.5c-0.5,0-0.9,0-1.2,0c0-0.4-0.1-1.2-0.1-2.5V312.8z"
		/>
	<path class="st2" d="M511.2,270h-30.1c-1.3,0-2.4,1.1-2.4,2.4v9.5c0,1.3,1.1,2.4,2.4,2.4h2.8c1.1,0,1.7,0.1,1.9,0.1
		c0.1,0.1,0.1,0.1,0.2,0.3c0,0.1,0.2,0.7,0.2,3.4v38.3c0,2.1-0.2,2.7-0.2,2.7c0,0.1,0,0.1,0,0.1c-0.1,0-0.7,0.2-2.4,0.2h-2.4
		c-0.6,0-1.1,0.2-1.5,0.5c-0.4-0.3-0.9-0.5-1.5-0.5h-2.7c-1.2,0-1.8-0.1-2.1-0.2c-0.4-0.1-0.8-0.4-1.3-0.8c-0.4-0.3-1-0.9-1.8-2
		l-11.1-14.5c3.5-1.3,6.7-3.3,9.5-6c3.8-3.7,5.7-8.5,5.7-14.4c0-3.6-0.7-6.9-2.2-9.8c-1.5-2.9-3.6-5.3-6.2-7.2
		c-2.6-1.9-5.6-3.1-8.9-3.7c-3-0.5-5.9-0.8-8.4-0.8h-38c-1.3,0-2.4,1.1-2.4,2.4v9.8c0,1.3,1.1,2.4,2.4,2.4l2.4,0l1.1,0
		c0.5,0,0.9,0.1,1.3,0.2c0.1,0.2,0.2,0.8,0.2,2.4v38.7c0,1.9-0.1,2.6-0.1,2.9c-0.1,0.2-0.2,0.2-0.3,0.3c0,0-0.4,0.2-1.9,0.2h-2.8
		c-1.3,0-2.4,1.1-2.4,2.4v9.5c0,1.3,1.1,2.4,2.4,2.4h30.2c1.3,0,2.4-1.1,2.4-2.4v-9.5c0-1.3-1.1-2.4-2.4-2.4h-2.8
		c-1.2,0-1.7-0.1-1.9-0.2c0,0-0.1-0.1-0.1-0.2c0-0.1-0.2-0.8-0.2-3.7V314h1.5l19.1,28.6c0.4,0.7,1.2,1.1,2,1.1h19.7
		c0.6,0,1.1-0.2,1.5-0.5c0.4,0.3,0.9,0.5,1.5,0.5h30.1c1.3,0,2.4-1.1,2.4-2.4v-9.5c0-1.3-1.1-2.4-2.4-2.4h-3.3
		c-1.1,0-1.5-0.2-1.5-0.2c0,0-0.1,0-0.1-0.1c0-0.1-0.2-0.8-0.2-3.2v-38.1c0-2.4,0.2-3,0.2-3c0-0.1,0.1-0.2,0.1-0.2
		c0.2,0,0.7-0.2,1.9-0.2h2.7c1.3,0,2.4-1.1,2.4-2.4v-9.5C513.6,271.1,512.5,270,511.2,270z M453.7,292.2c0,1.5-0.3,2.7-1,3.7
		c-0.6,1-1.6,1.7-2.9,2.3c-1,0.4-3.1,0.9-7.1,0.9h-6.8v-13h7.8c4,0,5.8,0.4,6.7,0.8c1.1,0.4,1.9,1.1,2.5,2
		C453.4,289.7,453.7,290.8,453.7,292.2z"/>
	<path class="st2" d="M654.5,304.5c0-1.3-1.1-2.4-2.4-2.4h-30.1c-1.3,0-2.4,1.1-2.4,2.4v9.6c0,1.3,1.1,2.4,2.4,2.4h3.5
		c1.5,0,2,0.2,2.1,0.2c0,0,0,0,0,0c0.1,0.1,0.2,0.2,0.2,0.3c0,0.2,0.1,0.8,0.1,2.4v2.5c0,1.6-0.2,2.8-0.7,3.6
		c-0.3,0.5-1.1,1.4-2.9,2.3c-1.6,0.8-3.2,1.2-5,1.2c-2.5,0-4.7-0.8-6.8-2.4c-2.1-1.6-3.9-4.3-5.3-7.8c-1.4-3.7-2.2-8.1-2.2-13.3
		c0-4.6,0.7-8.5,1.9-11.7c1.2-3,2.9-5.4,5-6.9c2-1.5,4.1-2.2,6.4-2.2c1.6,0,3.3,0.4,5,1.3c1.8,0.9,3.4,2.1,4.8,3.7
		c1.5,1.7,3.6,5,6.3,9.8c0.6,1,1.8,1.5,2.9,1.1l8.1-3c1.1-0.4,1.8-1.6,1.5-2.8l-5.6-22.8c-0.3-1.1-1.2-1.8-2.3-1.8H633
		c-0.9,0-1.7,0.5-2.1,1.3l-0.5,0.9c-1.6-0.8-3.4-1.5-5.3-2.1c-2.9-0.8-5.8-1.3-8.8-1.3c-6,0-11.7,1.7-16.9,5
		c-5.1,3.3-9.2,7.9-12,13.6c-1.9,3.9-3.2,8.2-3.8,12.8c-0.6-5-1.8-9.5-3.8-13.4c-2.8-5.5-6.6-9.7-11.3-12.5
		c-4.7-2.8-11-4.2-18.7-4.2h-32.3c-1.3,0-2.4,1.1-2.4,2.4v9.5c0,1.3,1.1,2.4,2.4,2.4h2.1c2,0,2.6,0.2,2.5,0.2
		c0.1,0.1,0.1,0.1,0.2,0.2c0,0.1,0.2,0.7,0.2,3.2v37.6c0,2.3-0.1,3-0.2,3.2c-0.2,0.3-0.3,0.5-0.3,0.5c-0.1,0-0.7,0.2-2.4,0.2h-2.1
		c-1.3,0-2.4,1.1-2.4,2.4v9.5c0,1.3,1.1,2.4,2.4,2.4H546c2.6,0,6-0.4,10.3-1.2c4.4-0.8,7.7-1.8,10.2-3.2c3.2-1.7,6.3-4.3,9.1-7.7
		c2.8-3.4,4.9-7.2,6.3-11.4c0.8-2.4,1.4-4.9,1.7-7.7c0.6,4.8,1.9,9.3,3.9,13.4c2.9,5.9,6.8,10.5,11.8,13.8c5,3.3,10.6,5,16.7,5
		c3.5,0,6.8-0.6,10-1.7c2.3-0.8,4.6-1.9,6.9-3.3l1.1,2.4c0.4,0.8,1.2,1.4,2.2,1.4h9c1.3,0,2.4-1.1,2.4-2.4v-21.6
		c0-2.2,0.2-2.7,0.2-2.8c0.1-0.2,0.1-0.2,0.1-0.2c0.1,0,0.5-0.2,1.9-0.2h2.3c1.3,0,2.4-1.1,2.4-2.4V304.5z M542.5,285.8h4.4
		c3.8,0,6.8,0.6,8.7,1.9c1.9,1.2,3.6,3.5,5,6.8c1.4,3.4,2.2,7.5,2.2,12.1c0,4.7-0.8,8.8-2.3,12.1c-1.5,3.2-3.4,5.6-5.7,7
		c-2.3,1.4-5.7,2.1-10.1,2.1c-1.1,0-1.8,0-2.1-0.1c0-0.3,0-0.8,0-1.5V285.8z"/>
	<path class="st2" d="M718.6,313.4l-8.1-3.1c-0.6-0.2-1.3-0.2-1.9,0.1c-0.6,0.3-1,0.8-1.2,1.5c-1,3.5-2.5,6.6-4.4,9.1
		c-1.8,2.4-3.9,4.2-6.2,5.3c-2.3,1.1-5.3,1.6-8.8,1.6h-5.2c-0.7,0-1.1,0-1.4-0.1c0-0.4,0-0.9,0-1.8v-13.4h0.4c3.1,0,3.9,0.3,3.9,0.3
		c0.2,0.1,0.4,0.4,0.6,0.7c0.1,0.3,0.4,1.2,0.4,3.4v3c0,1.3,1.1,2.4,2.4,2.4h7.9c1.3,0,2.4-1.1,2.4-2.4v-29.2c0-1.3-1.1-2.4-2.4-2.4
		h-7.9c-1.3,0-2.4,1.1-2.4,2.4v2.6c0,3-0.3,3.8-0.3,3.8c-0.1,0.3-0.3,0.4-0.6,0.6c-0.1,0-0.8,0.3-3.7,0.3h-0.7v-12.4h7
		c2.7,0,5,0.3,6.9,0.9c1.7,0.6,3.4,1.8,4.9,3.6c1.6,2,3.1,4.6,4.3,7.9c0.2,0.6,0.7,1.1,1.3,1.3c0.6,0.3,1.3,0.3,1.8,0l8-3.2
		c1.2-0.5,1.8-1.8,1.4-3l-7-21.8c-0.3-1-1.2-1.7-2.3-1.7h-51.4c-1.3,0-2.4,1.1-2.4,2.4v9.5c0,1.3,1.1,2.4,2.4,2.4h2.7
		c1.5,0,1.9,0.2,1.9,0.1c0,0,0.1,0.1,0.2,0.2c0,0.1,0.2,0.7,0.2,3.1v37.5c0,2.5-0.1,3.3-0.1,3.5c-0.1,0.2-0.2,0.3-0.2,0.3
		c0,0-0.7,0.3-3.1,0.3h-1.5c-1.3,0-2.4,1.1-2.4,2.4v9.5c0,1.3,1.1,2.4,2.4,2.4h53.3c1,0,2-0.7,2.3-1.7l8.1-25.6
		C720.4,315.2,719.8,313.9,718.6,313.4z"/>
</g>
<g>
	<path class="st4" d="M63.8,263.1l6,26.2l-9.4,3c-3.1-6.2-6.6-10.8-10.5-13.7c-3.9-2.9-8.1-4.3-12.5-4.3c-2.9,0-5.1,0.7-6.8,2
		c-1.6,1.3-2.5,2.8-2.5,4.4c0,1.8,0.7,3.5,2.3,5.1c1.5,1.6,4.2,3,8.1,4.2l13.4,4.4c7.4,2.4,12.7,5.6,15.9,9.5
		c3.1,4,4.7,8.6,4.7,13.9c0,6.8-2.4,12.5-7.2,17.1c-5.4,5.1-12,7.7-20,7.7c-3.7,0-7.1-0.5-10.2-1.6s-6.3-2.8-9.7-5.3l-2.2,5.6h-7.5
		l-5-30.2l9.4-2.5c2.2,6.1,5.6,11.3,10.3,15.4c4.7,4.1,9.8,6.2,15.3,6.2c2.5,0,4.6-0.4,6.2-1.1c1.7-0.7,2.9-1.7,3.7-3
		c0.8-1.3,1.3-2.6,1.3-3.9c0-2.2-1-4.2-2.9-5.8c-2-1.6-5.4-3.2-10.3-4.8l-11.7-3.8c-1.8-0.6-4.2-1.6-7.2-3.2c-3-1.5-5.3-3.2-7-4.8
		c-1.6-1.7-3-3.8-4-6.5c-1.1-2.6-1.6-5.4-1.6-8.3c0-4.1,1-7.9,3.1-11.4c2.1-3.5,5.1-6.3,9.3-8.5c4.1-2.2,8.7-3.2,13.7-3.2
		c6,0,11.5,1.8,16.4,5.3l2-3.9H63.8z"/>
	<path class="st4" d="M82.4,270.1h5.8l0.6,2.3h34.7l0.7-2.3h5.9l7.6,24.1l-8.2,3.2c-1.8-4-3.1-6.6-3.9-7.8c-1.6-2.4-3.4-4.3-5.4-5.7
		c-1.5-1.1-3-1.6-4.5-1.6c-0.7,0-1.2,0.2-1.5,0.6c-0.3,0.4-0.4,1.2-0.4,2.6v39.6c0,2.3,0.1,3.8,0.2,4.4c0.1,0.6,0.4,1.1,0.8,1.4
		c0.4,0.3,0.8,0.6,1.5,0.7c0.6,0.1,2.3,0.2,5,0.2v9.5H91.2v-9.5H93c2,0,3.3-0.1,3.9-0.4c0.6-0.3,1-0.8,1.3-1.5
		c0.3-0.7,0.4-2.2,0.4-4.4v-40.5c0-1.2-0.1-1.9-0.4-2.2c-0.2-0.3-0.7-0.4-1.5-0.4c-1.5,0-3.2,0.6-5.1,1.9c-1.9,1.3-3.6,3.1-5,5.4
		c-0.6,0.9-1.8,3.5-3.8,7.7l-8.1-3.2L82.4,270.1z"/>
	<path class="st4" d="M174.4,271.2c9.8,0,17.7,3.3,23.7,10c6.1,6.6,9.1,15.2,9.1,25.6c0,7-1.4,13.2-4.2,18.7
		c-2.8,5.4-6.6,9.6-11.5,12.6c-4.9,2.9-10.8,4.4-17.6,4.4c-9.1,0-16.5-2.8-22.3-8.4c-7-6.7-10.5-15.8-10.5-27
		c0-10.5,3.1-19.1,9.2-25.8C156.5,274.5,164.5,271.2,174.4,271.2z M174.6,282.2c-4.7,0-8.4,2-11.2,5.9c-3.5,4.9-5.2,11.3-5.2,19.1
		c0,7.8,1.6,14,4.9,18.5c2.8,3.9,6.5,5.8,11.1,5.8c4.6,0,8.3-1.9,11.1-5.8c3.3-4.6,4.9-10.8,4.9-18.6c0-5.5-0.7-10.1-2.1-13.8
		c-1.4-3.7-3.3-6.5-5.7-8.3C180,283.1,177.4,282.2,174.6,282.2z"/>
	<path class="st4" d="M213.8,272.4h25l18.1,40.2V288c0-2.1-0.1-3.4-0.3-3.9c-0.3-0.8-0.7-1.3-1.2-1.7c-0.5-0.3-1.5-0.5-2.9-0.5h-3
		v-9.5h25.4v9.5h-2.8c-1.4,0-2.4,0.2-3,0.5c-0.6,0.4-1,0.9-1.3,1.5c-0.2,0.6-0.4,2-0.4,4v53.3h-12.7l-22.9-50.7V326
		c0,2,0.1,3.3,0.3,3.9c0.2,0.6,0.6,1,1.2,1.3c0.6,0.3,1.6,0.5,3,0.5h2.9v9.5h-25.5v-9.5h2.6c1.5,0,2.5-0.1,3-0.4
		c0.5-0.3,1-0.8,1.3-1.5c0.3-0.7,0.5-1.7,0.5-3.1v-39.5c0-1.5-0.1-2.6-0.4-3.3c-0.3-0.7-0.7-1.2-1.2-1.5c-0.5-0.3-1.3-0.5-2.5-0.5
		h-3.3V272.4z"/>
	<path class="st4" d="M280.7,272.4h51.4l7,21.8l-8,3.2c-1.4-3.6-2.9-6.4-4.7-8.6c-1.8-2.2-3.8-3.6-6-4.3c-2.2-0.7-4.7-1.1-7.7-1.1
		h-9.4v17.2h3.1c2.3,0,3.9-0.2,4.7-0.6c0.8-0.4,1.4-1,1.7-1.8c0.4-0.8,0.5-2.4,0.5-4.8v-2.6h7.9V320h-7.9v-3c0-2-0.2-3.5-0.6-4.4
		c-0.4-0.9-1-1.6-1.7-1.9c-0.7-0.3-2.4-0.5-4.9-0.5h-2.8V326c0,1.7,0.1,2.7,0.2,3.1c0.1,0.4,0.4,0.6,0.9,0.8
		c0.4,0.2,1.3,0.3,2.8,0.3h5.2c3.9,0,7.1-0.6,9.8-1.9c2.7-1.2,5-3.2,7.1-6c2.1-2.8,3.7-6,4.8-9.8l8.1,3.1l-8.1,25.6h-53.3v-9.5h1.5
		c2.1,0,3.4-0.2,4.2-0.5c0.7-0.3,1.2-0.9,1.5-1.7c0.1-0.5,0.2-1.9,0.2-4.2v-37.5c0-2-0.1-3.4-0.4-4c-0.2-0.6-0.6-1.1-1.2-1.4
		c-0.5-0.3-1.6-0.5-3.1-0.5h-2.7V272.4z"/>
	<path class="st4" d="M345.9,281.9v-9.5h35c5.4,0,9.6,0.7,12.6,2.1c3.1,1.4,5.4,3.4,7.1,6c1.6,2.6,2.5,5.5,2.5,8.6
		c0,2.3-0.4,4.4-1.3,6.5c-0.9,2-2.1,3.8-3.8,5.4c-1.6,1.6-3.8,2.9-6.5,3.9c2.9,0.8,5.1,1.7,6.6,2.7c2.2,1.4,4,3.3,5.3,5.8
		c1.3,2.5,1.9,5.3,1.9,8.3c0,3.7-1,7-3,10.1c-2,3.1-4.8,5.4-8.4,7c-3.6,1.6-8.9,2.4-15.8,2.4h-32.3v-9.5h2.4c1.6,0,2.7-0.2,3.3-0.5
		c0.6-0.3,1-0.8,1.2-1.3c0.2-0.6,0.4-1.9,0.4-3.9v-38.4c0-2-0.1-3.3-0.4-3.9c-0.2-0.6-0.6-1-1.2-1.3c-0.6-0.3-1.7-0.5-3.3-0.5H345.9
		z M368.4,300.3h6.8c3.5,0,6.1-0.3,7.8-1c1.7-0.7,3-1.7,3.8-3c0.9-1.3,1.3-2.9,1.3-4.6c0-1.8-0.4-3.4-1.2-4.6
		c-0.8-1.3-2-2.2-3.5-2.7c-1.5-0.5-4.3-0.8-8.2-0.8h-6.8V300.3z M368.4,310.4v14.9c0,2.1,0.1,3.3,0.2,3.7c0.1,0.5,0.4,0.8,0.7,1
		c0.3,0.2,1.3,0.3,2.8,0.3h4.5c2.6,0,4.8-0.3,6.5-0.8c1.7-0.5,3.2-1.7,4.4-3.4c1.2-1.7,1.8-3.8,1.8-6.2c0-2-0.4-3.8-1.3-5.2
		c-0.9-1.4-2.1-2.5-3.8-3.2c-1.7-0.7-4.3-1.1-7.8-1.1H368.4z"/>
	<path class="st4" d="M410.8,272.4h38c2.4,0,5.1,0.2,8,0.7c2.9,0.5,5.5,1.6,7.9,3.3s4.2,3.8,5.5,6.4c1.3,2.6,1.9,5.5,1.9,8.7
		c0,5.2-1.7,9.5-5,12.7c-3.3,3.2-7.3,5.4-11.9,6.3l12.7,16.5l0.5,0.7c0.8,1.1,1.6,1.9,2.3,2.5c0.7,0.5,1.4,0.9,2,1.2
		c0.7,0.2,1.6,0.3,2.8,0.3h2.7v9.5h-19.7l-19.8-29.7h-5.1v13.7c0,2.4,0.1,3.9,0.4,4.5c0.2,0.6,0.6,1.1,1.1,1.4s1.6,0.5,3.1,0.5h2.8
		v9.5h-30.2v-9.5h2.8c1.5,0,2.5-0.2,3.1-0.5c0.6-0.3,1.1-0.9,1.4-1.6c0.1-0.4,0.2-1.6,0.2-3.7v-38.7c0-1.5-0.1-2.6-0.3-3.2
		c-0.2-0.6-0.6-1.1-1.1-1.3c-0.7-0.4-1.5-0.5-2.4-0.5l-1.2,0h-2.3V272.4z M433.5,283.7v17.8h9.1c3.6,0,6.3-0.4,8.1-1.1
		c1.8-0.7,3.1-1.8,4-3.2c0.9-1.4,1.3-3.1,1.3-5c0-1.8-0.4-3.4-1.3-4.7c-0.8-1.3-2-2.3-3.6-2.9c-1.5-0.6-4.1-0.9-7.6-0.9H433.5z"/>
	<path class="st4" d="M481.1,272.4h30.1v9.5h-2.7c-1.6,0-2.6,0.2-3.2,0.5c-0.5,0.3-0.9,0.8-1.1,1.5c-0.3,0.7-0.4,2-0.4,3.9v38.1
		c0,2.1,0.1,3.4,0.3,4c0.2,0.6,0.6,1,1.1,1.3c0.6,0.4,1.5,0.6,2.8,0.6h3.3v9.5h-30.1v-9.5h2.4c1.7,0,2.9-0.1,3.4-0.4
		c0.5-0.3,0.9-0.7,1.2-1.3c0.3-0.6,0.4-1.8,0.4-3.6v-38.3c0-2.1-0.1-3.5-0.4-4.2c-0.3-0.7-0.7-1.2-1.3-1.6c-0.4-0.3-1.4-0.4-3-0.4
		h-2.8V272.4z"/>
	<path class="st4" d="M517.6,272.4h32.3c7.3,0,13.2,1.3,17.5,3.9c4.3,2.6,7.8,6.4,10.4,11.5c2.6,5.1,3.9,11.2,3.9,18.4
		c0,5-0.7,9.4-2,13.3c-1.3,3.9-3.3,7.4-5.9,10.6c-2.6,3.1-5.4,5.5-8.4,7.1c-2.2,1.2-5.4,2.2-9.5,2.9c-4.1,0.8-7.4,1.1-9.9,1.1h-28.5
		v-9.5h2.1c1.8,0,3-0.2,3.6-0.5c0.6-0.3,1-0.9,1.4-1.7c0.2-0.6,0.4-2,0.4-4.1v-37.6c0-2.1-0.1-3.5-0.4-4.1c-0.3-0.6-0.7-1.1-1.2-1.4
		c-0.6-0.3-1.8-0.5-3.7-0.5h-2.1V272.4z M540.1,283.4v42.9c0,1.5,0.1,2.3,0.2,2.7c0.2,0.5,0.6,0.8,1,1c0.5,0.2,1.6,0.3,3.3,0.3
		c4.8,0,8.6-0.8,11.3-2.5c2.7-1.7,4.9-4.3,6.6-8c1.7-3.7,2.5-8.1,2.5-13.1c0-5-0.8-9.4-2.4-13.1c-1.6-3.7-3.5-6.3-5.9-7.8
		c-2.3-1.5-5.7-2.3-10-2.3H540.1z"/>
	<path class="st4" d="M622.1,304.5h30.1v9.6h-2.3c-1.5,0-2.5,0.1-3,0.4c-0.5,0.3-1,0.8-1.2,1.4c-0.3,0.6-0.4,1.9-0.4,3.7v21.6h-9
		l-2.3-4.9c-2.8,2-5.6,3.6-8.6,4.6c-3,1-6.1,1.5-9.3,1.5c-5.6,0-10.7-1.5-15.4-4.6c-4.6-3.1-8.3-7.3-11-12.8c-2.7-5.5-4-11.6-4-18.5
		c0-6.7,1.3-12.8,4-18.1s6.4-9.5,11.2-12.6c4.8-3.1,10-4.6,15.6-4.6c2.7,0,5.4,0.4,8.1,1.2c2.7,0.8,5,1.8,6.9,3.1l1.6-3.1h6.2
		l5.6,22.8l-8.1,3c-2.8-5-5-8.4-6.6-10.2s-3.4-3.2-5.5-4.2c-2.1-1-4.1-1.5-6.1-1.5c-2.8,0-5.4,0.9-7.8,2.7c-2.4,1.8-4.3,4.5-5.8,7.9
		c-1.4,3.5-2.1,7.7-2.1,12.6c0,5.4,0.8,10.1,2.3,14.1c1.5,4,3.6,6.9,6.1,8.9c2.5,1.9,5.3,2.9,8.3,2.9c2.1,0,4.1-0.5,6-1.4
		c1.9-1,3.2-2,3.9-3.2c0.7-1.2,1.1-2.8,1.1-4.8v-2.5c0-1.7-0.1-2.8-0.3-3.3c-0.3-0.7-0.8-1.1-1.3-1.4c-0.5-0.3-1.6-0.4-3.2-0.4h-3.5
		V304.5z"/>
	<path class="st4" d="M656.4,272.4h51.4l7,21.8l-8,3.2c-1.4-3.6-2.9-6.4-4.7-8.6c-1.8-2.2-3.8-3.6-6-4.3c-2.2-0.7-4.7-1.1-7.7-1.1
		H679v17.2h3.1c2.3,0,3.9-0.2,4.7-0.6c0.8-0.4,1.4-1,1.7-1.8c0.4-0.8,0.5-2.4,0.5-4.8v-2.6h7.9V320h-7.9v-3c0-2-0.2-3.5-0.6-4.4
		c-0.4-0.9-1-1.6-1.7-1.9c-0.7-0.3-2.4-0.5-4.9-0.5H679V326c0,1.7,0.1,2.7,0.2,3.1c0.1,0.4,0.4,0.6,0.9,0.8c0.4,0.2,1.3,0.3,2.8,0.3
		h5.2c3.9,0,7.1-0.6,9.8-1.9c2.7-1.2,5-3.2,7.1-6c2.1-2.8,3.7-6,4.8-9.8l8.1,3.1l-8.1,25.6h-53.3v-9.5h1.5c2.1,0,3.4-0.2,4.2-0.5
		c0.7-0.3,1.2-0.9,1.5-1.7c0.1-0.5,0.2-1.9,0.2-4.2v-37.5c0-2-0.1-3.4-0.4-4c-0.3-0.6-0.6-1.1-1.2-1.4c-0.5-0.3-1.6-0.5-3.1-0.5
		h-2.7V272.4z"/>
</g>
<text transform="matrix(1 0 0 1 288.1038 380.2131)" class="st5 st6 st7 st8">Cross Over to Luxury</text>
</svg>
