<?xml version="1.0" encoding="utf-8"?>
<!-- Generator: Adobe Illustrator 26.0.2, SVG Export Plug-In . SVG Version: 6.00 Build 0)  -->
<svg version="1.0" id="Layer_1" xmlns="http://www.w3.org/2000/svg" xmlns:xlink="http://www.w3.org/1999/xlink" x="0px" y="0px"
	 viewBox="0 0 2160 2880" style="enable-background:new 0 0 2160 2880;" xml:space="preserve">
<style type="text/css">
	.st0{fill-rule:evenodd;clip-rule:evenodd;fill:#737373;}
	.st1{fill:#FFFFFF;}
	.st2{fill-rule:evenodd;clip-rule:evenodd;fill:#FEFEFE;}
	.st3{fill-rule:evenodd;clip-rule:evenodd;}
</style>
<g>
	<g>
		<circle class="st0" cx="360" cy="667.5" r="300"/>
		<g>
			<g>
				<path class="st1" d="M443.5,861.4h-167c-60.9,0-110.4-49.5-110.4-110.4V584c0-60.9,49.5-110.4,110.4-110.4h167
					c60.9,0,110.4,49.5,110.4,110.4v167C553.9,811.9,504.3,861.4,443.5,861.4z M276.5,506.9c-42.5,0-77.1,34.6-77.1,77.1v167
					c0,42.5,34.6,77.1,77.1,77.1h167c42.5,0,77.1-34.6,77.1-77.1V584c0-42.5-34.6-77.1-77.1-77.1H276.5z"/>
			</g>
			<g>
				<path class="st1" d="M360,766.8c-54.7,0-99.3-44.5-99.3-99.3c0-54.7,44.5-99.3,99.3-99.3c54.7,0,99.3,44.5,99.3,99.3
					S414.7,766.8,360,766.8z M360,601.5c-36.4,0-66.1,29.6-66.1,66s29.6,66.1,66.1,66.1c36.4,0,66-29.6,66-66.1
					C426,631.1,396.4,601.5,360,601.5z"/>
			</g>
			<g>
				<path class="st1" d="M487.4,562.6c0,13.2-10.7,23.9-23.9,23.9c-13.2,0-23.9-10.7-23.9-23.9s10.7-23.9,23.9-23.9
					C476.7,538.7,487.4,549.4,487.4,562.6z"/>
			</g>
		</g>
	</g>
	<g>
		<circle class="st0" cx="1051" cy="667.5" r="300"/>
		<path class="st2" d="M1076.5,603v-27.5c0-13.2,8.9-16.3,15.2-16.3c6,0,38.4,0,38.4,0v-58.8H1077c-58.8,0-72,43.6-72,71.7v31h-34
			v41.3v27.2h34.4c0,77.7,0,171.2,0,171.2h68.6c0,0,0-94.7,0-171.2h50.8l2.3-27l4-41.6L1076.5,603L1076.5,603z"/>
	</g>
	<g>
		<circle class="st3" cx="1723.9" cy="667.5" r="300"/>
		<path class="st2" d="M1741.3,803.5c-28.7,0-55.4-8.6-77.7-23.2l-54.2,17.2l17.5-52.2c-16.9-22.9-27-51.6-27-82.3
			c0-4.6,0.3-8.9,0.9-13.5c6.9-71.1,67.4-126.8,140.6-126.8c74.3,0,135.4,57.1,141.1,129.4c0.3,3.7,0.3,7.5,0.3,10.9
			C1882.7,740.4,1819.3,803.5,1741.3,803.5L1741.3,803.5z M1818.5,696.8c-4.3-2-24.4-12-28.1-13.5c-4-1.1-6.6-2-9.5,2.3
			c-2.6,4-10.6,13.2-12.9,15.8c-2.6,2.9-4.9,3.2-8.9,1.1c-4.3-2-17.5-6.3-33.3-20.4c-12.3-10.9-20.7-24.1-23-28.1
			c-2.3-4.3-0.3-6.3,1.7-8.6c2-1.7,4.3-4.6,6.3-7.2c0.6-0.6,1.2-1.1,1.4-1.7c1.1-1.7,1.7-3.2,2.6-4.9c1.4-2.9,0.9-5.2-0.3-7.2
			c-0.9-2-9.2-22.4-12.6-30.4c-3.4-8.3-6.9-6.9-9.2-6.9c-2.6,0-5.2-0.3-8-0.3c-2.9,0-7.2,0.9-10.9,5.2c-4,4-14.6,13.8-14.6,34.1
			c0,4.6,0.9,9.5,2.3,13.8c4,14.6,13.2,26.4,14.6,28.4c2,2.9,28.4,45.3,70.3,61.7c42.2,16.3,42.2,10.9,49.6,10.3
			c7.5-0.6,24.4-9.8,27.8-19.5c3.4-9.5,3.4-17.8,2.3-19.5C1825.3,699.9,1822.5,698.8,1818.5,696.8L1818.5,696.8z M1909.4,658.9
			c-2.3-90.4-76.6-162.6-168.1-162.6c-90.4,0-164.1,70.6-167.8,159.5c-0.3,2.3-0.3,4.9-0.3,7.2c0,31.6,8.9,61.1,24.1,86.3
			l-30.4,89.5l93.2-29.5c24.1,13.2,51.9,20.7,81.2,20.7c92.9,0,168.4-74.6,168.4-166.9C1909.7,661.5,1909.4,660.3,1909.4,658.9
			L1909.4,658.9z"/>
	</g>
</g>
<g>
	<g>
		<circle class="st3" cx="400.5" cy="1610.6" r="300"/>
		<g>
			<g>
				<path class="st1" d="M484,1804.5H317c-60.9,0-110.4-49.5-110.4-110.4v-167c0-60.9,49.5-110.4,110.4-110.4h167
					c60.9,0,110.4,49.5,110.4,110.4v167C594.3,1755,544.8,1804.5,484,1804.5z M316.9,1449.9c-42.5,0-77.1,34.6-77.1,77.1v167
					c0,42.5,34.6,77.1,77.1,77.1h167c42.5,0,77.1-34.6,77.1-77.1v-167c0-42.5-34.6-77.1-77.1-77.1H316.9z"/>
			</g>
			<g>
				<path class="st1" d="M400.5,1709.9c-54.7,0-99.3-44.5-99.3-99.3c0-54.7,44.5-99.3,99.3-99.3c54.7,0,99.3,44.5,99.3,99.3
					C499.7,1665.3,455.2,1709.9,400.5,1709.9z M400.5,1544.5c-36.4,0-66.1,29.6-66.1,66s29.6,66.1,66.1,66.1c36.4,0,66-29.6,66-66.1
					S436.9,1544.5,400.5,1544.5z"/>
			</g>
			<g>
				<path class="st1" d="M527.9,1505.6c0,13.2-10.7,23.9-23.9,23.9c-13.2,0-23.9-10.7-23.9-23.9c0-13.2,10.7-23.9,23.9-23.9
					S527.9,1492.4,527.9,1505.6z"/>
			</g>
		</g>
	</g>
	<g>
		<circle class="st3" cx="1091.5" cy="1610.6" r="300"/>
		<path class="st2" d="M1117,1546v-27.5c0-13.2,8.9-16.3,15.2-16.3c6,0,38.4,0,38.4,0v-58.8h-53.1c-58.8,0-72,43.6-72,71.7v31h-34.1
			v41.3v27.2h34.4c0,77.7,0,171.2,0,171.2h68.6c0,0,0-94.7,0-171.2h50.8l2.3-27l4-41.6L1117,1546L1117,1546z"/>
	</g>
	<g>
		
			<ellipse transform="matrix(0.7071 -0.7071 0.7071 0.7071 -622.0854 1719.353)" class="st3" cx="1764.4" cy="1610.6" rx="300" ry="300"/>
		<path class="st2" d="M1781.8,1746.5c-28.7,0-55.4-8.6-77.7-23.2l-54.2,17.2l17.5-52.2c-16.9-22.9-27-51.6-27-82.3
			c0-4.6,0.3-8.9,0.9-13.5c6.9-71.1,67.4-126.8,140.6-126.8c74.3,0,135.4,57.1,141.1,129.4c0.3,3.7,0.3,7.5,0.3,10.9
			C1923.2,1683.4,1859.8,1746.5,1781.8,1746.5L1781.8,1746.5z M1858.9,1639.8c-4.3-2-24.4-12-28.1-13.5c-4-1.1-6.6-2-9.5,2.3
			c-2.6,4-10.6,13.2-12.9,15.8c-2.6,2.9-4.9,3.2-8.9,1.1c-4.3-2-17.5-6.3-33.3-20.4c-12.3-10.9-20.7-24.1-23-28.1
			c-2.3-4.3-0.3-6.3,1.7-8.6c2-1.7,4.3-4.6,6.3-7.2c0.6-0.6,1.2-1.1,1.4-1.7c1.1-1.7,1.7-3.2,2.6-4.9c1.4-2.9,0.9-5.2-0.3-7.2
			c-0.9-2-9.2-22.4-12.6-30.4c-3.4-8.3-6.9-6.9-9.2-6.9c-2.6,0-5.2-0.3-8-0.3c-2.9,0-7.2,0.9-10.9,5.2c-4,4-14.6,13.8-14.6,34.1
			c0,4.6,0.9,9.5,2.3,13.8c4,14.6,13.2,26.4,14.6,28.4c2,2.9,28.4,45.3,70.3,61.7c42.2,16.3,42.2,10.9,49.6,10.3
			c7.5-0.6,24.4-9.8,27.8-19.5c3.4-9.5,3.4-17.8,2.3-19.5C1865.8,1643,1863,1641.8,1858.9,1639.8L1858.9,1639.8z M1949.9,1602
			c-2.3-90.4-76.6-162.6-168.1-162.6c-90.4,0-164.1,70.6-167.8,159.5c-0.3,2.3-0.3,4.9-0.3,7.2c0,31.6,8.9,61.1,24.1,86.3
			l-30.4,89.5l93.2-29.5c24.1,13.2,51.9,20.7,81.2,20.7c92.9,0,168.4-74.6,168.4-166.9C1950.2,1604.6,1949.9,1603.4,1949.9,1602
			L1949.9,1602z"/>
	</g>
</g>
</svg>
