<?xml version="1.0" encoding="utf-8"?>
<!-- Generator: Adobe Illustrator 26.0.2, SVG Export Plug-In . SVG Version: 6.00 Build 0)  -->
<svg version="1.0" id="Layer_1" xmlns="http://www.w3.org/2000/svg" xmlns:xlink="http://www.w3.org/1999/xlink" x="0px" y="0px"
	 viewBox="0 0 178.1 108.1" style="enable-background:new 0 0 178.1 108.1;" xml:space="preserve">
<style type="text/css">
	.st0{fill:#737474;}
</style>
<path d="M38.3,33.6c-9.1,0-16.4,7.3-16.4,16.4c0,6.8,4.1,12.8,10.4,15.3c-0.1-1.3-0.3-3.3,0.1-4.7c0.3-1.3,1.9-8.2,1.9-8.2
	s-0.5-1-0.5-2.4c0-2.3,1.3-4,3-4c1.4,0,2.1,1,2.1,2.3c0,1.4-0.9,3.5-1.4,5.5c-0.4,1.6,0.8,3,2.4,3c2.9,0,5.2-3.1,5.2-7.5
	c0-3.9-2.8-6.7-6.9-6.7c-4.7,0-7.4,3.5-7.4,7.1c0,1.4,0.5,2.9,1.2,3.7c0.1,0.1,0.2,0.3,0.1,0.5c-0.1,0.5-0.4,1.6-0.5,1.9
	c-0.1,0.3-0.2,0.4-0.5,0.2c-2.1-1-3.3-3.9-3.3-6.4c0-5.2,3.8-9.9,10.8-9.9c5.7,0,10.1,4.1,10.1,9.5c0,5.7-3.6,10.2-8.5,10.2
	c-1.7,0-3.2-0.9-3.8-1.9l-1,3.9c-0.4,1.4-1.4,3.2-2,4.3c8.7,2.7,17.8-2.2,20.5-10.8S51.8,37,43.2,34.3C41.6,33.9,40,33.6,38.3,33.6z
	"/>
<path class="st0" d="M133.8,33.6c-9.1,0-16.4,7.3-16.4,16.4c0,6.8,4.1,12.8,10.4,15.3c-0.1-1.3-0.3-3.3,0.1-4.7
	c0.3-1.3,1.9-8.2,1.9-8.2s-0.5-1-0.5-2.4c0-2.3,1.3-4,3-4c1.4,0,2.1,1,2.1,2.3c0,1.4-0.9,3.5-1.4,5.5c-0.4,1.6,0.8,3,2.4,3
	c2.9,0,5.2-3.1,5.2-7.5c0-3.9-2.8-6.7-6.9-6.7c-4.7,0-7.4,3.5-7.4,7.1c0,1.4,0.5,2.9,1.2,3.7c0.1,0.1,0.2,0.3,0.1,0.5
	c-0.1,0.5-0.4,1.6-0.5,1.9c-0.1,0.3-0.2,0.4-0.5,0.2c-2.1-1-3.3-3.9-3.3-6.4c0-5.2,3.8-9.9,10.8-9.9c5.7,0,10.1,4.1,10.1,9.5
	c0,5.7-3.6,10.2-8.5,10.2c-1.7,0-3.2-0.9-3.8-1.9l-1,3.9c-0.4,1.4-1.4,3.2-2,4.3c8.7,2.7,17.8-2.2,20.5-10.8
	c2.7-8.7-2.2-17.8-10.8-20.5C137,33.9,135.4,33.6,133.8,33.6z"/>
</svg>
